<svg width="316" height="312" viewBox="0 0 316 312" fill="none" xmlns="http://www.w3.org/2000/svg">
<path d="M37 25.7664C91.6667 25.7664 146.333 25.7664 201 25.7664C214.185 25.7664 227.37 25.7664 240.556 25.7664C280.149 25.7664 200.213 29.0143 191 29.7664C186.232 30.1556 71.3119 51.8276 76.3333 63.5442C78.956 69.6638 116.893 65.7958 121.444 65.7664C161.148 65.5103 200.947 63.6625 240.556 60.8775C253.877 59.9409 293.175 54.2871 280.556 58.6553C259.929 65.7951 238.182 69.8585 217.444 76.8775C175.665 91.0183 134.81 112.393 95.2222 131.766C80.7887 138.83 33.5 145.593 25.8889 161.766C22.8534 168.217 48.1137 165.766 48.5556 165.766C87.6534 165.766 126.798 165.199 165.889 165.989C191.972 166.516 223.199 164.293 246.778 177.766C252.869 181.247 230.548 187.468 230.333 187.544C196.011 199.678 160.471 206.007 125 213.766C113.427 216.298 57.3691 233.766 57.8889 233.766C107.797 233.766 157.433 238.126 207 243.989C234.882 247.286 265.036 248.942 292.333 255.766C309.515 260.062 272.355 263.805 271.222 263.989C206.897 274.394 142.102 281.764 77.8889 292.878C76.3807 293.139 64.2633 293.604 65.4444 292.878C91.307 276.962 124.174 269.087 151.444 255.322C156.007 253.019 257.909 204.545 256.111 201.766C248.578 190.124 195.372 197.766 185.444 197.766C138.974 197.766 92.7238 197.616 46.3333 194.655C35.5167 193.965 8.54336 196.785 14.5556 187.766C23.2179 174.773 77.2627 172.418 90.7778 169.989C124.427 163.939 158.152 158.816 191.667 151.989C195.243 151.26 228.999 147.322 211.222 141.766C170.104 128.917 124.49 144.865 82.7778 136.878C74.1911 135.233 127.725 125.699 133.444 124.878C167.892 119.929 201.953 116.122 236.556 112.878C237.545 112.785 258.361 111.569 257.889 107.322C256.198 92.1009 185.023 97.7664 175.889 97.7664C149.451 97.7664 122.992 98.0635 96.5556 97.7664C87.3621 97.6631 69.6378 94.1679 89.4444 89.7664C117.046 83.6327 146.122 81.8492 174.111 77.9886C192.152 75.5002 217.04 77.3534 234.111 69.7664C235.493 69.1521 200.753 65.7664 196.556 65.7664C166.933 65.7664 137.677 62.9272 108.111 61.9886C103.579 61.8448 54.9783 58.1661 84.5556 57.7664C128.356 57.1745 258.349 58.7273 215.667 48.8775C164.995 37.184 106.176 41.7664 54.3333 41.7664C31.3425 41.7664 47.2391 41.1505 60.7778 39.5442C101.419 34.7223 141.918 28.7952 182.556 23.9886C213.129 20.3724 243.851 18.158 274.333 13.7664C285.865 12.105 319.652 10.2063 308.556 6.6553C298.852 3.55009 236.54 5.76641 276.333 5.76641C291.591 5.76641 293 9.84171 293 23.5442C293 55.9886 293 88.4331 293 120.878C293 147.6 282.6 116.027 279.444 106.211C275.148 92.8454 276.879 98.9179 277 110.211C277.304 138.493 279.921 166.889 281.889 195.1C282.688 206.556 288.366 225.223 284.556 236.655C282.717 242.171 264.147 202.509 263 199.766C254.901 180.4 247.709 160.606 239.444 141.322C236.789 135.127 237 173.712 237 179.766C237 196.956 248.223 265.782 225 272.878C193.203 282.593 167.185 235.777 155.222 213.766C144.35 193.761 132.774 157.009 137.889 201.766C139.436 215.306 149.999 252.825 133 260.878C109.402 272.055 92.235 173.844 89 160.211C86.8965 151.346 84.5201 119.968 75.2222 114.655C73.9868 113.949 71.1734 153.665 71 155.989C69.4818 176.333 67.9183 196.583 65.8889 216.878C65.1926 223.84 68.33 241.895 64.1111 247.989C63.3487 249.09 53.4521 202.74 53 199.1C48.3618 161.75 43.1969 124.949 33.8889 88.4331C21.6194 40.2989 24.6207 81.1291 25.2222 109.1C26.5862 172.526 32.4152 236.721 44.1111 299.1C44.6667 302.063 45 312.419 45 301.989C45 264.605 36.4404 228.079 29.4444 191.544C21.6827 151.011 5 109.168 5 67.7664C5 46.6931 152.06 29.975 173 26.6553C196.684 22.9005 220.19 21.7664 244.111 21.7664C245.101 21.7664 203.713 22.3486 193.444 23.5442C49.0415 40.3582 247.823 38.9249 236.333 59.9886C230.672 70.3673 210.911 74.3682 201 77.7664C178.907 85.341 155.795 91.4059 134.778 101.766C133.491 102.401 113.697 111.971 120.333 115.544C139.499 125.864 173.123 124.333 194.556 129.766C198.636 130.801 278.654 152.768 268.111 160.878C247.129 177.018 208.526 165.163 186.778 185.766C182.457 189.86 239.791 198.157 246.333 199.989C278.779 209.073 189.606 231.075 181.889 233.544C146.13 244.987 151.468 249.546 185.889 252.878C199.507 254.195 233.867 253.333 209 265.766" stroke="white" stroke-width="10" stroke-linecap="round"/>
</svg>
