<svg width="323" height="285" viewBox="0 0 323 285" fill="none" xmlns="http://www.w3.org/2000/svg">
<path d="M51.1509 26.4538C103.715 26.4538 157.707 22.6681 210.115 26.7109C246.953 29.5526 142.095 55.8762 107.045 67.5928C87.4553 74.1411 27.4311 86.1147 48.0742 86.6196C129.789 88.6183 216.823 86.4597 296.264 108.732C359.172 126.369 267.574 133.909 247.036 137.786C207.804 145.192 93.4837 168.21 132.941 174.297C160.329 178.523 184.692 177.754 211.654 187.41C217.662 189.562 219.848 194.681 212.166 197.695C184.303 208.629 150.51 209.877 121.403 216.207C85.4424 224.028 -20.8767 245.006 15.7686 248.347C31.6529 249.795 138.249 238.861 143.966 256.061C147.537 266.806 58.6641 277.952 48.587 279.973C43.1123 281.071 54.921 248.503 55.766 242.948C61.8787 202.763 61.7094 161.835 46.5358 123.645C43.6905 116.483 5 40.0848 5 71.9638C5 123.012 17.6603 170.287 23.204 220.321C24.2708 229.95 19.6958 232.001 16.5377 221.093C8.42398 193.066 9.61509 162.032 9.61509 133.158C9.61509 120.8 3.83279 90.9528 12.179 80.1916C19.3567 70.9372 31.5479 116.163 32.4342 119.274C40.0614 146.044 45.3113 172.946 54.7404 199.238C59.9182 213.675 61.4511 234.579 69.6113 247.576C81.5632 266.612 110.573 185.17 114.737 175.583C144.598 106.818 138.387 294.259 159.606 275.345C170.652 265.498 172.485 233.968 175.758 220.836C176.497 217.875 192.561 163.122 193.193 163.755C200.882 171.466 201.026 206.168 203.449 217.236C207.033 233.609 208.687 253.936 217.294 268.66C230.45 291.165 242.415 187.521 244.985 175.583C246.199 169.943 251.318 136.764 255.241 156.042C258.354 171.34 263.66 186.063 267.035 201.295C274.77 236.201 281.906 208.237 281.906 186.382C281.906 136.586 281.906 -12.7997 281.906 36.9957C281.906 64.4823 277.291 91.4593 277.291 119.017C277.291 134.761 277.291 88.8469 277.291 83.0199C277.291 31.1619 137.841 46.1549 107.558 40.0811C103.537 39.2748 50.0026 18.5884 59.6119 17.4546C93.4751 13.4595 129.57 17.1975 163.708 17.1975C204.333 17.1975 82.5456 12.5694 41.9207 12.5694C38.7263 12.5694 5.17106 9.54101 6.02558 8.96973C18.4199 0.683479 56.2946 7.94125 70.6369 7.94125C76.401 7.94125 150.764 1.77916 153.965 8.19837C154.449 9.16942 107.825 18.8695 104.481 19.5116C89.3225 22.4225 72.8362 24.7308 58.5864 31.0819C54.1672 33.0515 55.3861 38.1572 59.8683 39.3097C82.1567 45.0409 104.998 43.2994 127.044 51.6514C144.312 58.1934 195.989 75.9477 155.76 93.3047C133.334 102.98 110.958 112.169 89.0973 123.13C88.7998 123.28 62.7212 135.695 72.9444 137.272C91.0272 140.062 175.021 130.728 180.117 153.728C182.074 162.556 24.8181 199.006 87.0461 219.807C113.164 228.538 73.1444 239.192 64.7398 241.919C60.1912 243.395 -1.0533 268.891 14.4866 271.488C56.8987 278.577 106.122 271.745 149.093 271.745C179.519 271.745 209.944 271.745 240.37 271.745C247.949 271.745 258.207 269.914 265.496 272.002C277.885 275.552 266.461 270.215 263.445 258.118C248.152 196.773 254.215 131.51 254.215 68.107C254.215 58.0794 254.215 48.0518 254.215 38.0241C254.215 24.183 189.925 31.0819 180.63 31.0819C143.699 31.0819 108.085 26.4538 71.9189 26.4538C48.2069 26.4538 62.428 30.2587 80.8926 32.1104C120.792 36.1117 158.998 44.3048 194.219 63.4789C204.922 69.3056 224.086 127.557 220.884 128.016C208.835 129.742 176.662 115.54 167.554 124.673C159.658 132.591 156.05 148.101 149.093 157.07C145.426 161.799 167.688 161.569 168.579 161.698C188.261 164.559 208.011 172.597 224.473 183.81C239.075 193.757 244.985 208.619 244.985 225.464" stroke="white" stroke-width="10" stroke-linecap="round"/>
</svg>
