<svg width="305" height="293" viewBox="0 0 305 293" fill="none" xmlns="http://www.w3.org/2000/svg">
<path d="M18.3996 8.31323C57.0471 8.31323 95.6945 8.31323 134.342 8.31323C170.416 8.31323 216.031 0.696773 251.52 8.5597C262.463 10.9842 193.374 46.8427 188.976 48.7342C163.94 59.5017 135.598 69.3421 114.318 83.4864C104.376 90.0943 138.223 83.9193 150.163 83.4864C174.401 82.6077 198.303 79.2964 222.597 79.2964C246.205 79.2964 237.385 85.1589 220.372 92.6057C198.279 102.276 175.41 109.238 152.636 117.006C150.287 117.807 105.743 139.062 117.779 148.061C138.566 163.605 180.494 165.826 205.044 174.926C233.907 185.625 265.178 194.985 293.052 207.953C311.008 216.308 289.479 219.445 280.938 221.263C246.794 228.53 212.681 234.253 178.098 239.008C146.791 243.314 55.5209 265.627 87.1245 265.627C97.419 265.627 151.566 264.951 114.318 274.5C101.47 277.794 45.8076 296.277 45.0985 274.007C43.3055 217.696 31.7491 162.199 31.7491 105.915C31.7491 82.5826 32.5287 152.593 31.7491 175.912C30.6484 208.834 15.2004 153.903 13.9498 147.322C10.4806 129.067 4.38548 67.1926 5.0502 120.21C5.53023 158.497 22.8494 194.243 22.8494 231.861C22.8494 242.474 22.8974 230.904 22.6022 226.931C20.8884 203.865 18.3996 181.381 18.3996 158.167C18.3996 148.468 16.4717 137.233 25.0743 130.562C29.8608 126.85 34.7915 127.205 36.1989 133.52C40.5845 153.196 41.6652 195.164 56.223 209.679C68.6864 222.105 71.7974 148.632 71.7974 139.681C71.7974 134.849 70.5385 126.154 78.2249 128.344C83.6529 129.89 80.6964 150.763 80.9442 154.716C82.8781 185.566 84.7178 220.493 105.171 245.417C124.189 268.592 129.963 178.801 131.87 169.504C141.013 124.939 146.699 150.739 154.366 177.145C160.828 199.399 169.901 238.923 189.717 254.29C214.817 273.753 198.392 147.64 230.013 219.291C233.995 228.315 247.728 251.825 260.914 251.825C269.644 251.825 265.242 234.05 272.039 245.91C279.273 258.532 276.489 212.999 276.489 207.707C276.489 177.638 276.489 147.568 276.489 117.499C276.489 93.0669 278.451 66.253 266.6 43.8048C249.757 11.8993 196.248 21.6226 166.232 21.6226C121.717 21.6226 65.5538 33.392 23.8383 47.2554C-4.68153 56.7334 17.6369 94.6265 31.7491 110.352C62.4408 144.551 107.133 61.5506 145.219 61.5506C154.3 61.5506 183.043 55.4499 183.043 68.4517C183.043 92.876 161.458 97.2707 150.163 114.788C140.393 129.94 183.92 123.661 191.695 123.661C211.429 123.661 227.796 120.967 243.362 135.245C255.061 145.976 276.921 166.638 280.691 183.553C282.238 190.49 260.436 156.534 251.768 150.772C226.468 133.957 172.003 146.625 142.994 145.843C113.055 145.036 84.3733 120.271 67.3476 97.0422C54.7765 79.8913 40.7919 72.0069 22.8494 62.5365C2.73899 51.9217 81.4514 24.6484 87.6189 23.5943C99.6142 21.5442 149.703 12.4631 155.355 31.4813C161.111 50.8493 129.738 86.8778 120.745 101.479C104.65 127.613 97.699 154.643 90.5855 183.799C83.9812 210.869 89.6589 209.257 117.284 221.263C124.835 224.544 187.634 239.252 168.704 252.318C151.106 264.465 127.488 266.262 163.266 260.205C169.326 259.179 249.957 248.592 231.002 261.191C212.343 273.593 178.547 285.479 156.344 287.809C142.811 289.23 183 282.326 196.392 279.922C210.175 277.449 267.958 280.971 263.139 283.373" stroke="white" stroke-width="10" stroke-linecap="round"/>
</svg>
