<svg width="359" height="348" viewBox="0 0 359 348" fill="none" xmlns="http://www.w3.org/2000/svg">
<path fill-rule="evenodd" clip-rule="evenodd" d="M11.4907 92.2667C10.0182 87.2572 2.90589 87.8931 2.41779 81.8989C3.57447 53.4172 -2.16378 22.3138 5.01005 4.10967C94.964 1.76287 229.602 -1.78606 314.781 2.80908C328.743 3.564 351.073 -3.23435 353.665 15.7781C336.586 19.8234 322.246 16.2335 297.932 17.0745C311.213 24.0986 335.737 19.8809 347.185 28.747C343.206 39.5374 347.283 40.3211 353.665 45.5973C352.111 53.6921 359.063 71.1085 347.185 71.5311C355.683 75.8883 355.909 88.6398 352.369 98.7573C307.845 106.032 263.888 103.234 216.275 105.24C256.193 119.111 313.682 114.418 356.257 135.059C354.933 148.09 354.65 173.141 354.957 192.104C322.168 204.347 280.672 191.534 242.202 199.883C278.51 211.855 319.109 212.561 354.957 225.809C362.73 251.132 362.828 301.334 322.558 294.519C331.282 300.066 347.254 298.343 356.262 303.598C365.384 326.771 332.377 321.79 310.897 320.457C242.132 316.177 169.762 303.348 109.997 310.081C172.059 321.228 236.46 316.645 295.343 325.643C316.246 328.831 338.218 331.03 356.266 339.9C348.329 354.522 327.681 344.044 312.193 342.493C282.485 339.522 250.02 338.907 218.876 334.714C214.175 335.957 217.785 328.888 213.691 329.528C147.642 328.174 86.3874 320.978 11.4948 324.342C-4.1449 312.518 16.8926 285.525 12.7909 260.814C12.2741 255.284 6.3349 255.173 5.01416 250.446C3.6606 228.533 6.8312 208.536 5.01416 188.211C2.6762 162.154 -3.33276 131.403 2.41779 105.232C3.64009 99.6559 6.56459 96.2628 11.4907 92.2667ZM14.083 32.6324C65.8011 32.9729 120.325 24.9109 182.576 20.9599C130.722 16.8284 76.933 19.6224 14.083 24.8494C14.7269 28.9276 11.2569 29.9204 14.083 32.6324ZM46.4862 137.644C51.6092 136.975 41.3632 135.728 46.4862 135.051C126.707 132.105 196.714 126.87 260.348 131.165C195.459 121.733 134.127 127.473 69.8166 128.572C58.5411 134.985 26.4988 128.421 14.083 137.644C23.603 141.271 34.5996 135.9 46.4862 137.644ZM16.6752 71.527C37.3026 75.7693 58.9102 82.9164 81.4777 87.0849C160.357 101.638 247.665 82.0138 319.966 85.7884C237.518 67.5842 106.728 64.8558 15.3791 67.6334C14.5875 67.7114 13.841 67.8263 14.083 68.934C15.7934 68.9463 15.2643 71.2029 16.6752 71.527ZM16.6752 211.544C20.8138 207.872 35.5758 207.601 23.1518 205.061C27.2494 205.27 30.9778 205.11 32.2247 202.464C26.1132 204.027 11.0026 202.394 16.6752 211.544ZM19.2675 240.062C37.5077 248.247 61.7445 252.629 81.4777 250.438C120.706 246.077 164.848 244.14 196.833 240.062C157.593 236.366 88.7787 234.437 45.186 232.287C32.4257 231.651 21.1625 231.496 16.6752 237.473C18.3856 237.49 17.8606 239.746 19.2675 240.062ZM16.6752 167.463C17.9673 167.463 19.2675 167.463 20.5595 167.463C119.984 173.876 252.091 172.214 347.189 164.87C347.816 163.299 347.952 153.55 345.893 150.609C296.746 157.161 239.552 143.252 192.949 150.609C174.172 143.794 153.868 149.078 130.735 150.609C91.2233 153.214 48.5576 152.841 16.6793 162.277C16.6752 164.008 16.6752 165.732 16.6752 167.463ZM185.172 221.911C237.313 226.133 291.385 238.458 343.3 234.872C279.654 223.877 185.976 203.297 126.846 211.539C119.32 212.59 101.4 211.864 112.589 215.429C110.312 216.172 104.976 213.858 104.812 216.721C131.051 218.818 157.9 219.704 185.172 221.911ZM151.473 284.143C152.191 284.143 152.941 285.193 151.473 285.439C147.014 284.869 144.205 285.952 141.1 286.736C137.646 286.736 134.188 286.736 130.731 286.736C129.004 286.736 127.273 286.736 125.542 286.736C123.462 287.142 125.64 288.578 128.134 288.032C139.131 287.786 151.698 289.124 159.241 285.435C154.414 283.638 163.056 285.238 161.834 282.846C154.73 283.146 154.213 284.914 151.473 284.143ZM322.558 253.027C257.911 250.894 189.746 257.421 138.512 264.695C196.747 273.877 265.418 258.287 322.558 253.027ZM308.301 44.2967C288.842 31.1267 230.274 32.3124 207.206 36.5177C238.547 41.9622 280.032 41.1211 308.301 44.2967ZM319.966 280.257C333.382 278.752 352.004 277.234 347.189 260.81C306.951 269.319 260.29 270.312 222.76 276.368C221.751 276.651 221.255 277.455 221.464 278.961C252.112 284.754 293.432 283.236 319.966 280.257ZM349.781 176.538C335.195 174.352 320.249 175.32 307.009 179.131C321.586 176.538 343.682 187.058 349.781 176.538ZM331.631 75.4165C333.395 69.611 316.09 71.0265 318.67 72.8235C324.166 72.5117 327.849 74.0092 331.631 75.4165Z" fill="black"/>
</svg>
